<mxfile host="app.diagrams.net" modified="2023-08-09T12:19:50.318Z" agent="Mozilla/5.0 (Windows NT 10.0; WOW64) AppleWebKit/537.36 (KHTML, like Gecko) Chrome/103.0.0.0 Safari/537.36" version="21.6.6" etag="6xlKT4Xa6fpAZ8qAYkh_" type="github">
  <diagram name="第 1 页" id="vbbRplhO5rjdBHYVbgLp">
    <mxGraphModel>
      <root>
        <mxCell id="0" />
        <mxCell id="1" parent="0" />
      </root>
    </mxGraphModel>
  </diagram>
</mxfile>
